<svg nfill="noe" height="800" viewBox="0 0 24 24" width="800" xmlns="http://www.w3.org/2000/svg"><g fill="currentColor"><path d="m17.0671 2.27157c.4329-.17929.8968-.27157 1.3653-.27157s.9324.09228 1.3653.27157c.4328.17929.8261.44208 1.1574.77336s.5941.72457.7734 1.15742c.1792.43284.2715.89676.2715 1.36526s-.0923.93242-.2715 1.36527c-.1793.43284-.4421.82613-.7734 1.15741l-.5182.51816-5.0453-5.04537.5181-.51815c.3313-.33128.7246-.59407 1.1574-.77336z"/><path d="m13.9774 4.9773-10.3228 10.3228c-.12306.123-.21187.2761-.25766.444l-1.36168 4.9928c-.09442.3462.00391.7165.25766.9702.25375.2538.62401.3521.97022.2577l4.99283-1.3617c.1679-.0458.32094-.1346.44399-.2577l10.32274-10.3227z"/></g></svg>